<?xml version="1.0" encoding="UTF-8"?>
<svg version="1.1" xmlns="http://www.w3.org/2000/svg" width="512" height="512">
<path d="M0 0 C1.4092342 -0.01358496 1.4092342 -0.01358496 2.84693778 -0.02744436 C4.39810642 -0.01945247 4.39810642 -0.01945247 5.9806118 -0.01129913 C7.62642882 -0.02043579 7.62642882 -0.02043579 9.30549467 -0.02975702 C13.00169651 -0.04647601 16.69755718 -0.04159827 20.39378929 -0.03681183 C23.03657793 -0.04414753 25.67934056 -0.0526392 28.32211876 -0.06247711 C34.77042563 -0.08356427 41.21864266 -0.08806975 47.66697992 -0.08628923 C52.91467641 -0.08498178 58.16234487 -0.08878489 63.41003609 -0.09621429 C64.92163606 -0.09831356 66.43323604 -0.10041116 67.94483602 -0.10250711 C68.6972723 -0.10355064 69.44970857 -0.10459417 70.22494595 -0.10566932 C84.46980615 -0.12458924 98.71461491 -0.12351784 112.95948248 -0.11669999 C125.96177301 -0.11113894 138.96386562 -0.13188518 151.96610995 -0.16506046 C165.33096064 -0.19889433 178.69571686 -0.21395271 192.06061113 -0.20934343 C199.55788881 -0.20710647 207.05498418 -0.21222605 214.55222511 -0.23723602 C220.94392835 -0.25837624 227.33534966 -0.26171784 233.72706498 -0.24293643 C236.98198636 -0.23385092 240.23628168 -0.23518187 243.49118042 -0.25329208 C274.95037604 -0.41614175 294.53236099 8.99701395 317.44603539 30.38311005 C318.31506493 31.42181244 318.31506493 31.42181244 319.20165062 32.48149872 C322.12967989 34.96234501 323.78046991 34.88052728 327.58275414 34.8870163 C329.39646507 34.91166962 329.39646507 34.91166962 331.24681664 34.93682098 C332.52943382 34.93972137 333.81205101 34.94262177 335.13353539 34.94561005 C362.36386466 35.46153902 385.66623383 41.77199129 405.07640648 61.85918427 C410.55955718 67.96004463 414.95799412 74.53794102 417.44603539 82.38311005 C418.3076931 82.37263641 419.16935081 82.36216278 420.05711937 82.35137177 C423.29441377 82.31701805 426.53161435 82.29207992 429.76903343 82.27324677 C431.16261948 82.26327074 432.55618504 82.24968504 433.94969749 82.23223114 C447.64991895 82.06509532 457.24245784 83.75320389 468.63353539 91.57061005 C488.91948789 111.85656255 495.37455169 150.71365204 501.44603539 177.38311005 C501.63955589 178.22003387 501.8330764 179.0569577 502.03246117 179.91924286 C504.73800932 191.84226021 507.52541386 205.22614289 500.99681664 216.29717255 C496.92474778 221.77446416 492.03535232 225.43872144 485.44603539 227.38311005 C480.11909562 227.96462234 474.54276146 228.56823706 469.82103539 225.63311005 C466.04197022 222.05294305 465.19753671 218.85180119 464.43822289 213.77373505 C464.26073509 212.64322723 464.0832473 211.51271942 463.90038109 210.3479538 C463.70919701 209.12205536 463.51801292 207.89615692 463.32103539 206.63311005 C457.04420522 163.29858583 457.04420522 163.29858583 439.44603539 124.38311005 C437.15224072 123.60899971 437.15224072 123.60899971 434.55931664 123.6760788 C433.62152367 123.64707489 432.6837307 123.61807098 431.71751976 123.58818817 C430.25282249 123.579487 430.25282249 123.579487 428.75853539 123.57061005 C427.77046898 123.54547333 426.78240257 123.52033661 425.76439476 123.49443817 C423.32454203 123.43550453 420.88648544 123.39927197 418.44603539 123.38311005 C418.67677757 124.09402802 418.90751976 124.80494598 419.14525414 125.53740692 C438.60626122 185.88191308 450.44678921 249.56346328 455.02416039 312.81279755 C455.10053734 313.8472702 455.17691429 314.88174286 455.2556057 315.94756317 C455.37664159 317.73392874 455.47729916 319.52188125 455.55052757 321.31084442 C455.80027524 325.22970382 456.24047642 327.13602748 458.78587914 330.19561005 C459.6637307 330.91748505 460.54158226 331.63936005 461.44603539 332.38311005 C471.1784322 341.97387115 472.85984081 351.42971613 472.99337578 364.70304012 C473.00208786 367.86870004 472.99083736 371.03387864 472.97728539 374.1995163 C472.97998414 376.42428507 472.98386975 378.64905268 472.98888206 380.87381744 C472.99475778 385.52115433 472.98627544 390.1681823 472.96751976 394.81548309 C472.94471841 400.7523838 472.9578736 406.68856152 472.98180962 412.62543583 C472.99630826 417.21443822 472.99164315 421.803271 472.98129845 426.39227867 C472.9786431 428.58059972 472.98185864 430.7689365 472.99121666 432.95723915 C473.00145077 436.0222148 472.9857857 439.08604156 472.96361351 442.15093231 C472.97171043 443.04212265 472.97980736 443.93331299 472.98814964 444.85150909 C472.88857098 452.3352016 471.07781702 459.18165833 466.26244164 465.03936005 C465.51865257 465.64779755 464.77486351 466.25623505 464.00853539 466.88311005 C463.26732445 467.51217255 462.52611351 468.14123505 461.76244164 468.78936005 C454.81641025 473.56841705 447.15677143 473.53046057 439.0307827 473.50336456 C438.09052266 473.50421899 437.15026262 473.50507341 436.18150985 473.50595373 C433.03545332 473.50759894 429.88945028 473.50210284 426.74339867 473.49663544 C424.48638472 473.49635333 422.22937069 473.49651175 419.9723568 473.49707794 C413.84686636 473.49736501 407.72139548 473.49148288 401.5959096 473.48450398 C395.19372882 473.4782554 388.7915476 473.47766545 382.38936424 473.47647858 C371.64425313 473.47372299 360.89915057 473.46747553 350.1540432 473.4585495 C339.08796283 473.44936641 328.02188442 473.44228996 316.95580101 473.43804169 C315.93213254 473.4376476 315.93213254 473.4376476 314.8877839 473.43724556 C311.4640554 473.43594049 308.04032689 473.43467679 304.61659837 473.43343365 C276.22640577 473.42307184 247.83622096 473.40538846 219.44603539 473.38311005 C219.14657005 474.15348602 218.84710472 474.923862 218.53856468 475.7175827 C212.28041811 490.98606187 199.07065607 501.88064017 184.19603539 508.32061005 C175.5669725 511.79966864 167.31654957 512.72626493 158.07103539 512.69561005 C156.62470726 512.71977997 156.62470726 512.71977997 155.14916039 512.74443817 C145.13099611 512.75115276 132.70459625 510.62755225 124.75853539 503.96904755 C122.49339584 501.23200393 122.44603539 498.85590566 122.44603539 495.38311005 C124.44603539 492.44561005 124.44603539 492.44561005 127.44603539 490.38311005 C131.92480063 489.59273971 134.95376592 490.49661183 139.00853539 492.25811005 C151.32844982 497.48474041 164.0921941 497.2423172 176.57103539 492.69561005 C191.88056815 485.94945821 199.96952731 476.54053133 206.44603539 461.38311005 C210.64164137 449.27021437 209.65385135 435.00879333 204.44603539 423.38311005 C196.93276846 409.1190612 185.84077093 400.22500268 170.44603539 395.38311005 C156.6506958 392.59075579 143.2510904 394.44505601 131.10619164 401.60967255 C119.01627729 409.66961544 110.78944016 420.95520752 107.84447289 435.3167038 C106.16327187 448.25535864 107.9854701 458.54734745 113.75853539 470.13311005 C116.97380758 476.82628806 116.97380758 476.82628806 116.00853539 480.57061005 C114.44603539 483.38311005 114.44603539 483.38311005 111.44603539 485.38311005 C108.07103539 485.82061005 108.07103539 485.82061005 104.44603539 485.38311005 C100.42342804 482.27473164 98.62065302 478.89481675 96.44603539 474.38311005 C94.63985489 474.37097977 94.63985489 474.37097977 92.7971859 474.35860443 C81.452501 474.28113811 70.10793595 474.19339743 58.76340771 474.09558296 C52.93099728 474.04562554 47.09860491 473.99929528 41.26610374 473.96123505 C35.63800103 473.92437549 30.01004964 473.8780134 24.38207626 473.82504654 C22.23430789 473.80650622 20.08650709 473.79139692 17.93869019 473.77976608 C14.93162204 473.76289768 11.9249002 473.73386069 8.91795921 473.7019577 C8.02891396 473.69979752 7.1398687 473.69763733 6.22388268 473.69541168 C0.77208552 473.6214656 -3.51037813 473.42669653 -7.55396461 469.38311005 C-7.88990211 467.3245163 -7.88990211 467.3245163 -7.92896461 464.94561005 C-7.95732399 464.16314911 -7.98568336 463.38068817 -8.01490211 462.5745163 C-7.55396461 460.38311005 -7.55396461 460.38311005 -5.94367409 458.76743317 C-2.76608012 456.92670029 -0.52197883 457.02217663 3.14232445 457.04253387 C3.80615135 457.04209579 4.46997826 457.04165771 5.15392113 457.04120636 C7.34013721 457.04329033 9.52557888 457.0666015 11.71166039 457.0901413 C13.23051599 457.09573868 14.74937702 457.10000811 16.26823997 457.10300446 C20.25994971 457.11444215 24.25133039 457.14389978 28.24291039 457.17711639 C32.31838594 457.20784064 36.39391482 457.22151481 40.46947289 457.23662567 C48.46181115 457.26877077 56.4538823 457.3199538 64.44603539 457.38311005 C64.43719826 456.61200394 64.42836113 455.84089783 64.41925621 455.04642487 C64.38391451 451.51154198 64.36214165 447.97669645 64.34056664 444.4417038 C64.32642723 443.22881683 64.31228783 442.01592987 64.29771996 440.76628876 C64.18187595 415.43077629 75.62109268 393.62752913 92.88353539 375.63311005 C111.25039925 357.8658517 135.8112383 349.99109185 160.94505882 350.01030731 C174.50855926 350.27628088 187.25466452 353.40079215 199.44603539 359.38311005 C200.37802757 359.83557098 201.31001976 360.28803192 202.27025414 360.7542038 C224.83600187 372.3675384 240.97338245 393.11507008 248.82103539 417.00811005 C252.58060418 430.5991176 252.44603539 443.03386165 252.44603539 457.38311005 C284.45603539 457.38311005 316.46603539 457.38311005 349.44603539 457.38311005 C349.36353539 449.23623505 349.28103539 441.08936005 349.19603539 432.69561005 C349.18024437 430.1514035 349.16445335 427.60719696 349.14818382 424.98589325 C349.03229565 408.78272621 349.03229565 408.78272621 344.44603539 393.38311005 C343.92783226 392.21393036 343.40962914 391.04475067 342.87572289 389.8401413 C335.99179315 378.13054223 326.56682464 370.47082647 315.77416039 362.5745163 C311.34314066 359.32958775 307.01689213 355.96014955 302.69603539 352.57061005 C296.33667785 347.59599573 289.91703526 342.71152436 283.44603539 337.88311005 C274.68528096 331.34455027 266.04361842 324.66434247 257.43138695 317.93193817 C247.55905273 310.23025491 237.58409609 302.65914579 227.63548851 295.05644989 C224.77681266 292.8716412 221.91872945 290.68605826 219.06078148 288.50029755 C217.65240065 287.42328131 216.24387228 286.34645798 214.83519554 285.2698288 C210.47488039 281.93695001 206.1192243 278.59811475 201.76830101 275.25298309 C199.60822768 273.59908695 197.43758144 271.95981118 195.26634789 270.32061005 C193.03454103 268.62863432 190.92062296 266.9216202 188.81322289 265.07061005 C180.9548378 258.43118238 171.39575474 256.18522432 161.69994164 253.3401413 C133.68288745 244.94313069 108.66842795 226.99018663 94.24695396 201.24228668 C87.03490365 187.57834663 82.34258233 173.51997087 78.28294945 158.64922333 C77.30886713 155.08863105 76.30145257 151.53865515 75.28978539 147.9885788 C74.64981501 145.69875819 74.01172312 143.40841154 73.37572289 141.11748505 C73.07898674 140.07050446 72.7822506 139.02352386 72.47652245 137.94481659 C70.57748958 130.91193765 69.13805954 124.30703759 71.50853539 117.19561005 C74.33634491 113.09072526 77.95618549 109.62803499 82.44603539 107.38311005 C84.66666621 107.27997222 86.89047373 107.24355976 89.11348534 107.23593903 C89.80657582 107.23226234 90.49966631 107.22858565 91.21375954 107.22479755 C93.54753988 107.21374144 95.88127572 107.20991365 98.21507835 107.20610809 C99.88374028 107.19984499 101.55240081 107.19319832 103.2210598 107.18619537 C107.76238256 107.16877355 112.30369479 107.15823078 116.84504271 107.14998984 C119.68035599 107.14484308 122.51566598 107.13876726 125.35097694 107.13247871 C134.21644856 107.11342488 143.08191182 107.09919314 151.94739997 107.09086674 C162.19178914 107.08108716 172.43596265 107.05474967 182.6802758 107.01436585 C190.59199234 106.98424396 198.50364691 106.96940168 206.4154197 106.96608573 C211.14402329 106.96373109 215.87239655 106.95471698 220.6009388 106.92962456 C225.04805395 106.90640681 229.49478606 106.90208503 233.94194603 106.91238594 C235.5754136 106.91288292 237.20889963 106.9065148 238.84230995 106.8928299 C241.07020917 106.87520647 243.29671938 106.88216826 245.52461815 106.89536285 C247.39564862 106.89178032 247.39564862 106.89178032 249.30447769 106.88812542 C253.04492569 107.47747135 254.23352375 108.35459914 256.44603539 111.38311005 C256.94603539 114.88311005 256.94603539 114.88311005 256.44603539 118.38311005 C254.22740509 121.29028078 252.9265861 122.22292647 249.44603539 123.38311005 C247.27757027 123.48682661 245.10603759 123.52957562 242.93512535 123.54132843 C242.27102659 123.54626641 241.60692784 123.55120438 240.92270488 123.556292 C238.69326094 123.57167302 236.46384582 123.58002923 234.23436546 123.58843231 C232.63788156 123.59801036 231.04140019 123.6080204 229.44492149 123.61843109 C225.10641077 123.64549413 220.76788914 123.66649613 216.4293406 123.68643308 C211.89693667 123.70828399 207.36456637 123.73567706 202.83218956 123.76248932 C194.24747739 123.81242831 185.66274656 123.85736267 177.07799786 123.90051168 C167.30541973 123.94987375 157.53287534 124.0047957 147.76032984 124.06019127 C127.65559645 124.17402984 107.55083086 124.28086481 87.44603539 124.38311005 C88.08400027 127.11096727 88.72295476 129.83858634 89.36247826 132.56607819 C89.54205763 133.33439641 89.721637 134.10271464 89.90665817 134.89431524 C91.14158249 140.15651033 92.45479817 145.38285031 93.96166039 150.5745163 C94.1811837 151.33376907 94.40070702 152.09302185 94.62688255 152.87528229 C95.08468479 154.44920265 95.54504742 156.02238069 96.0080471 157.59477997 C96.69562166 159.94419636 97.36176403 162.2990705 98.02806664 164.65459442 C105.60610872 190.80669635 120.17930777 213.5540725 144.13353539 227.57061005 C159.50879784 235.89647 176.70720085 240.43524504 193.32103539 245.63311005 C195.21541176 246.22836968 197.10978661 246.82363425 199.004035 247.41930103 C218.97605216 253.69916631 238.96971326 259.90976475 258.96947289 266.10063934 C273.90237237 270.72426828 288.82736752 275.37251433 303.74681664 280.03936005 C304.66071474 280.32519392 305.57461285 280.61102779 306.51620483 280.9055233 C315.66316859 283.76642829 324.80973812 286.62858688 333.95541096 289.4936161 C337.36278771 290.56080096 340.77044213 291.62709711 344.17815781 292.69319916 C345.7764577 293.19347398 347.37462608 293.69416915 348.97265625 294.19530487 C351.17098065 294.88467095 353.36973549 295.57264706 355.56859398 296.26030731 C356.80596306 296.64791733 358.04333214 297.03552734 359.31819725 297.43488312 C361.68728491 298.15308931 364.03691158 298.81951714 366.44603539 299.38311005 C366.69294217 290.82916162 365.96486167 282.55143402 364.88353539 274.07061005 C364.79678551 273.38837372 364.71003563 272.70613739 364.62065697 272.00322723 C357.12914691 199.00939262 357.12914691 199.00939262 323.44603539 137.38311005 C311.37271801 128.0652645 298.96568564 124.36225425 284.03978539 123.86553192 C278.98978561 123.64249026 274.9238677 123.15299027 270.69603539 120.13311005 C268.82597999 117.51503249 268.5101231 115.58749559 268.44603539 112.38311005 C269.73900414 109.7229538 269.73900414 109.7229538 272.44603539 107.38311005 C276.20053894 106.6316568 279.87984773 106.72237562 283.69603539 106.82061005 C284.77417503 106.83793182 285.85231468 106.8552536 286.96312523 106.87310028 C305.8981958 107.42835194 322.29221929 113.58786269 336.44603539 126.38311005 C337.1537307 127.00959442 337.86142601 127.6360788 338.59056664 128.28154755 C373.41363217 160.9073642 380.31721289 241.34830348 383.44603539 287.38311005 C383.54190605 290.42731907 383.54334295 293.46290981 383.50853539 296.50811005 C383.48791039 299.10686005 383.46728539 301.70561005 383.44603539 304.38311005 C390.04603539 306.69311005 396.64603539 309.00311005 403.44603539 311.38311005 C399.70302037 279.53911324 395.82629901 247.8205995 389.44603539 216.38311005 C389.06149193 214.48625458 389.06149193 214.48625458 388.66917992 212.5510788 C383.18668284 185.9839752 376.69418226 158.86113043 366.3493557 133.7175827 C364.33367386 128.50840711 364.42675448 122.19978361 366.32103539 116.9651413 C369.00023599 112.26772708 372.28960742 109.22630395 377.44603539 107.38311005 C382.41077316 106.79575301 387.36440574 106.84361856 392.35619164 106.8870163 C393.81155024 106.88686111 395.26690925 106.88536888 396.72226524 106.88260651 C399.76261881 106.88122673 402.80249822 106.89371048 405.8427639 106.91655731 C409.72873097 106.94496663 413.61391258 106.94219238 417.49993801 106.9294672 C420.50180264 106.92249448 423.50348747 106.93031692 426.50532913 106.94272423 C427.93777272 106.94722151 429.37023572 106.94759067 430.80268097 106.94365883 C432.80761099 106.94073062 434.81253679 106.95947074 436.81737328 106.97905731 C437.95541908 106.9844603 439.09346489 106.98986328 440.26599693 106.99542999 C446.83304418 107.79602196 450.75654666 111.13732628 454.82152367 116.04521942 C457.64682953 120.11121415 459.25579651 124.48286911 460.88353539 129.13311005 C461.44584862 130.69207001 461.44584862 130.69207001 462.01952171 132.28252411 C468.14585201 149.63466216 472.94791111 167.35190121 476.88353539 185.32061005 C477.13063255 186.4385495 477.37772972 187.55648895 477.63231468 188.70830536 C479.21455982 196.25118666 480.03092196 203.68972707 480.44603539 211.38311005 C484.59273577 209.00681915 484.59273577 209.00681915 487.44603539 205.38311005 C488.19954513 197.54462582 486.64805216 190.12157663 484.94603539 182.50811005 C484.67758812 181.29212128 484.40914085 180.07613251 484.13255882 178.82329559 C475.98970466 141.72884275 475.98970466 141.72884275 459.37059593 107.93291473 C458.44603539 106.38311005 458.44603539 106.38311005 458.44603539 104.38311005 C451.49446857 100.61767802 445.56255049 98.95060903 437.74681664 99.04717255 C436.10944279 99.03467217 434.47207296 99.02163562 432.83470726 99.00811005 C430.28695624 99.00416959 427.73959927 99.00821812 425.19188499 99.02275848 C422.70960553 99.03133203 420.22895258 99.00966318 417.74681664 98.98467255 C416.98838966 98.99801636 416.22996269 99.01136017 415.44855309 99.02510834 C411.45183506 98.96940004 409.66640745 98.56139353 406.52000999 96.01592255 C404.40778796 93.33455676 403.05925951 90.88006159 401.69603539 87.75811005 C393.88890402 71.60884085 380.51578866 61.2930826 363.78197289 55.45342255 C356.93330366 53.28088397 350.28361854 52.25892164 343.08294201 52.2556181 C341.84183283 52.25261045 340.60072364 52.2496028 339.32200509 52.24650401 C337.95797834 52.24819123 336.5939517 52.24996227 335.22992516 52.25180817 C333.77067944 52.25010465 332.31143419 52.24795434 330.85218972 52.24539691 C327.68542423 52.24081059 324.51867826 52.23937696 321.35190964 52.24036217 C316.19911369 52.24195832 311.04633705 52.23674576 305.89354515 52.23073578 C298.41370525 52.22263129 290.93386875 52.21768202 283.45402527 52.21444511 C271.63601434 52.20894502 259.81803221 52.19204541 248.00003624 52.17310333 C243.95641999 52.16674712 239.91280367 52.16043866 235.86918736 52.15412617 C234.85874877 52.1525424 233.84831019 52.15095864 232.80725226 52.14932689 C221.3114418 52.13139866 209.81562931 52.11516658 198.31981468 52.10015106 C197.26913542 52.09877519 196.21845616 52.09739932 195.13593813 52.09598175 C178.09008982 52.07402747 161.04424894 52.06328899 143.99838898 52.05578031 C126.50100263 52.04771733 109.00368011 52.02445666 91.50633019 51.98782665 C80.71069561 51.965774 69.91519216 51.9561454 59.11953618 51.96232698 C51.72814585 51.96549468 44.3368678 51.95421721 36.94551221 51.93143257 C32.67765139 51.91873087 28.41004061 51.91263573 24.14216995 51.92384911 C20.23828293 51.93397481 16.33488264 51.92585808 12.43105342 51.90298615 C11.01599975 51.89796844 9.60090281 51.89976409 8.18586985 51.90891882 C6.26780326 51.92035616 4.34963207 51.9049698 2.43160534 51.88812542 C1.36458852 51.88714861 0.29757169 51.8861718 -0.80177897 51.88516539 C-4.23438716 51.25898696 -5.41301832 50.08095455 -7.55396461 47.38311005 C-8.12037086 45.38311005 -8.12037086 45.38311005 -8.11646461 43.38311005 C-8.13837868 42.72311005 -8.16029274 42.06311005 -8.18287086 41.38311005 C-7.12792274 38.02824397 -5.58247734 37.18265012 -2.55396461 35.38311005 C1.43771017 34.77203471 5.40494898 34.83698686 9.43646812 34.86412811 C10.66580596 34.85662686 11.89514379 34.84912561 13.16173428 34.84139705 C16.57120177 34.82460467 19.97981835 34.82569248 23.38926041 34.83430457 C27.06682797 34.8392461 30.74429063 34.82116866 34.42181969 34.80588531 C40.79239166 34.78256129 47.16284978 34.77382529 53.53346252 34.7749939 C62.74427363 34.77666242 71.95493283 34.75633578 81.16570344 34.73063859 C96.10948182 34.68954427 111.05323289 34.6662413 125.99706078 34.65410614 C140.51368904 34.64227983 155.03026589 34.62208732 169.54686546 34.59062958 C170.88904305 34.58772543 170.88904305 34.58772543 172.25833533 34.5847626 C176.74720384 34.5749981 181.23607197 34.56506898 185.72493994 34.555058 C222.96528116 34.47221839 260.20562013 34.4182437 297.44603539 34.38311005 C296.18762947 33.25713253 294.92561041 32.13519232 293.66209984 31.01494598 C292.9597068 30.38973053 292.25731377 29.76451508 291.53363609 29.1203537 C278.03904045 17.89052391 260.24405737 16.22668778 243.431036 16.24507904 C241.83493458 16.24084712 241.83493458 16.24084712 240.20658869 16.23652971 C236.66538434 16.2282418 233.1242115 16.22685053 229.58299828 16.2253952 C227.03469824 16.22072305 224.48639903 16.21557883 221.93810081 16.20999908 C216.46362981 16.19874999 210.98916518 16.19025131 205.51468658 16.18387985 C196.8639697 16.17352039 188.21329074 16.15295167 179.56259727 16.13076019 C176.59943688 16.12328245 173.63627633 16.11586855 170.67311573 16.10847282 C169.56268338 16.10569697 169.56268338 16.10569697 168.42981805 16.10286505 C160.01978152 16.08197486 151.60974087 16.06312523 143.19969749 16.04521942 C142.43157022 16.04358124 141.66344294 16.04194306 140.87203907 16.04025523 C128.39754507 16.01391506 115.92304813 15.99529778 103.44853801 15.97862752 C90.63270138 15.96122451 77.81692301 15.93240614 65.00113291 15.89373815 C57.09891219 15.870322 49.19678637 15.85634215 41.29453068 15.85441051 C35.24975631 15.85205756 29.20513118 15.83422792 23.16039848 15.81054115 C20.67670905 15.80331753 18.19299863 15.80126189 15.70930099 15.80464363 C12.33004189 15.80851131 8.9513451 15.79417184 5.57214928 15.77510834 C4.57995339 15.78063803 3.5877575 15.78616773 2.56549507 15.79186499 C1.66348946 15.78302515 0.76148385 15.77418531 -0.16785526 15.76507759 C-0.9480759 15.76372106 -1.72829654 15.76236453 -2.53216022 15.7609669 C-5.08783328 15.28333485 -5.97726026 14.4137795 -7.55396461 12.38311005 C-7.95240211 10.22686005 -7.95240211 10.22686005 -7.92896461 7.88311005 C-7.93669899 7.10967255 -7.94443336 6.33623505 -7.95240211 5.53936005 C-7.10667774 0.96249872 -4.30933474 0.00832945 0 0 Z M381.44603539 123.38311005 C382.17817767 128.50810608 382.90207689 132.15640546 384.59837914 136.8792038 C385.04566815 138.1507966 385.49182025 139.42278974 385.93700218 140.69512177 C386.172528 141.36412506 386.40805382 142.03312836 386.65071678 142.72240448 C403.26556306 190.29401739 411.16049379 240.0745585 417.1517849 289.93901825 C417.51075046 292.92064389 417.8760255 295.90147414 418.24167442 298.88228607 C418.99733623 305.04687278 419.73271191 311.21348771 420.44603539 317.38311005 C423.04861863 318.22168693 425.65289185 319.05414349 428.25853539 319.88311005 C428.99652367 320.12158661 429.73451195 320.36006317 430.49486351 320.6057663 C433.57858735 321.5825114 436.19099347 322.38311005 439.44603539 322.38311005 C438.84210431 310.67854265 437.77412298 299.08113607 436.38353539 287.44561005 C436.27755028 286.55648926 436.17156517 285.66736847 436.06236839 284.75130463 C429.49179864 230.23202011 419.69480877 175.32192662 401.44603539 123.38311005 C394.84603539 123.38311005 388.24603539 123.38311005 381.44603539 123.38311005 Z M228.44603539 274.38311005 C231.67579453 277.72904758 234.94447725 280.63911324 238.69603539 283.38311005 C239.7440432 284.15783661 240.79205101 284.93256317 241.87181664 285.7307663 C242.44238792 286.15245087 243.01295921 286.57413544 243.60082054 287.00859833 C247.05304004 289.58017755 250.46655235 292.20250145 253.88353539 294.82061005 C254.61346703 295.37941864 255.34339867 295.93822723 256.09544945 296.51396942 C261.43212765 300.60153659 266.76018747 304.70022465 272.08666039 308.8010788 C278.13240661 313.45151324 284.19619754 318.07844248 290.25658226 322.7097702 C294.52557377 325.97244502 298.79330973 329.23676192 303.06126976 332.50078583 C306.65264082 335.24727443 310.2443369 337.99333602 313.83666039 340.7385788 C317.37533095 343.44285813 320.91236967 346.14926226 324.44896507 348.85625458 C326.39673296 350.34541599 328.34694212 351.83132822 330.29759789 353.3167038 C331.4721318 354.21376754 332.64661402 355.11089897 333.82103539 356.00811005 C334.83939476 356.78412567 335.85775414 357.5601413 336.90697289 358.35967255 C339.44603539 360.38311005 339.44603539 360.38311005 341.17259789 362.15654755 C342.39143525 363.61435224 342.39143525 363.61435224 344.44603539 363.38311005 C344.72189476 363.98510223 344.99775414 364.58709442 345.28197289 365.2073288 C346.46789705 367.64781867 346.46789705 367.64781867 349.07103539 370.19561005 C352.05313142 373.63086773 354.36436809 377.3578163 356.57103539 381.32061005 C357.21298851 382.46400848 357.85494164 383.60740692 358.51634789 384.7854538 C365.46196637 400.07367474 365.09938496 415.92106997 365.19603539 432.38311005 C365.22425021 434.81542243 365.25418513 437.24771551 365.28587914 439.67998505 C365.35908167 445.58095084 365.41110611 451.48179995 365.44603539 457.38311005 C376.03384088 457.45267188 386.62159185 457.50595279 397.20957947 457.53854656 C402.12620818 457.55419127 407.04268035 457.57540781 411.95921898 457.60942841 C416.70544406 457.64206435 421.45151872 457.65997205 426.19784737 457.66774178 C428.00711878 457.67327767 429.81638212 457.68408797 431.62558937 457.70030022 C434.1630859 457.72213088 436.69996371 457.72507463 439.23753929 457.72368622 C439.9827282 457.73447205 440.7279171 457.74525787 441.49568748 457.75637054 C446.22468045 457.72843859 449.50193752 457.02465245 453.44603539 454.38311005 C457.22457801 450.08097961 456.87215349 445.53453466 456.83421898 440.09819794 C456.83947594 439.17076279 456.84473289 438.24332764 456.85014915 437.28778839 C456.86333537 434.22694221 456.85461509 431.16661763 456.84447289 428.1057663 C456.84649418 425.97494151 456.84940609 423.8441174 456.85317039 421.71329498 C456.85759203 417.24875549 456.85116837 412.78439616 456.83714867 408.31987762 C456.82006741 402.6022305 456.82989246 396.88500618 456.84786606 391.16737461 C456.85871699 386.76726864 456.85525133 382.36726256 456.84748268 377.96715355 C456.84548377 375.85925941 456.8479291 373.75135616 456.85492134 371.64347267 C456.86255606 368.69454375 456.85090251 365.74629507 456.83421898 362.79741669 C456.84332802 361.49505066 456.84332802 361.49505066 456.85262108 360.16637421 C456.78480474 353.68268866 455.49987398 349.48629011 450.84447289 344.71904755 C446.96918878 341.75059409 442.68956278 340.43938093 438.07103539 339.00811005 C437.03656273 338.67545135 436.00209007 338.34279266 434.93626976 338.00005341 C431.82127975 337.00445333 428.70224105 336.02381913 425.5804348 335.04991913 C423.35722842 334.35536581 421.13538106 333.65660234 418.91380882 332.95684052 C408.24810445 329.59859281 397.5731852 326.27025209 386.89607811 322.94846344 C372.65419135 318.51648631 358.41858745 314.06442068 344.18251896 309.61379814 C338.16497124 307.73263376 332.14701975 305.85276503 326.12889671 303.97344208 C310.24926266 299.0141313 294.37147573 294.04920199 278.50145149 289.05921364 C274.00409431 287.64557795 269.5060646 286.23408347 265.00801468 284.82265377 C260.80572835 283.50371876 256.60463909 282.18105616 252.40440464 280.85560226 C250.45599163 280.24147182 248.50698503 279.62927245 246.55768394 279.01796722 C244.20450465 278.27999371 241.85229593 277.53891528 239.50125694 276.79415131 C238.47522865 276.47344666 237.44920036 276.152742 236.39208031 275.82231903 C235.05858795 275.40247993 235.05858795 275.40247993 233.69815636 274.97415924 C231.35047748 274.25618761 231.35047748 274.25618761 228.44603539 274.38311005 Z M105.44603539 386.38311005 C104.76412132 386.97350067 104.08220726 387.5638913 103.37962914 388.17217255 C90.6229542 399.90531779 81.45514503 418.41826826 80.20677757 435.6941452 C80.15325093 439.01231062 80.18215568 442.31548898 80.25853539 445.63311005 C80.27207054 446.77135223 80.2856057 447.90959442 80.29955101 449.0823288 C80.3344309 451.84946686 80.38821623 454.61635624 80.44603539 457.38311005 C84.07603539 457.38311005 87.70603539 457.38311005 91.44603539 457.38311005 C91.37642601 455.3876413 91.37642601 455.3876413 91.30541039 453.35186005 C90.79092199 432.25194462 94.68736321 414.41454844 109.44603539 398.38311005 C122.37790912 385.2875417 138.85979748 378.24310518 157.32103539 378.07061005 C175.7530522 378.05255714 192.69180683 384.52896179 205.82494164 397.63311005 C222.6179508 415.25200491 224.98057006 434.02196493 224.44603539 457.38311005 C228.40603539 457.38311005 232.36603539 457.38311005 236.44603539 457.38311005 C237.19042855 432.01860206 232.8935216 411.14932862 215.91478539 391.44561005 C201.30010328 375.97124076 181.92007796 366.74002413 160.5549221 365.97808075 C139.82544179 365.70009921 120.84706274 372.29103077 105.44603539 386.38311005 Z " fill="#3E0C17" transform="translate(7.553964614868164,-0.38311004638671875)"/>
<path d="M0 0 C0.73003235 -0.00145523 1.4600647 -0.00291046 2.21221924 -0.00440979 C3.75545239 -0.00275264 5.29870238 0.00878839 6.84179688 0.02954102 C9.18172072 0.0583304 11.51935256 0.05018075 13.859375 0.03710938 C15.36459418 0.04335289 16.86980627 0.05174862 18.375 0.0625 C19.06487 0.05956436 19.75473999 0.05662872 20.46551514 0.05360413 C27.32094768 0.18393495 33.53746676 2.10134222 38.703125 6.74609375 C39.32703125 7.2875 39.9509375 7.82890625 40.59375 8.38671875 C44.91292337 13.28662132 47.04638541 18.69763365 48.8190918 24.91259766 C49.12479599 25.97009972 49.12479599 25.97009972 49.43667603 27.04896545 C50.10073628 29.35443342 50.75169426 31.66337123 51.40234375 33.97265625 C51.86431028 35.58756509 52.32703532 37.20225713 52.79048157 38.81674194 C53.75656989 42.18910211 54.71675644 45.56306247 55.67211914 48.93847656 C56.89505714 53.2592319 58.12766818 57.57714578 59.36406231 61.89406776 C60.54650268 66.02357178 61.72483273 70.15424435 62.90234375 74.28515625 C63.12614904 75.069547 63.34995434 75.85393776 63.58054161 76.66209793 C64.21436391 78.88690146 64.8453445 81.11248963 65.4753418 83.33837891 C65.83411911 84.60299957 66.19289642 85.86762024 66.56254578 87.17056274 C69.40788932 97.79542119 69.02929577 105.98235413 63.703125 115.68359375 C59.28671779 121.20410277 54.37291772 125.51430814 47.453125 127.49609375 C43.26107719 127.9424678 39.0917811 127.94040102 34.87890625 127.9296875 C33.67751511 127.93492935 32.47612396 127.9401712 31.23832703 127.9455719 C28.70763928 127.95197709 26.17692169 127.95067467 23.64624023 127.94213867 C19.76818303 127.93359938 15.89158484 127.96246114 12.01367188 127.99414062 C9.55208377 127.995752 7.09049306 127.99517633 4.62890625 127.9921875 C3.46845291 128.00342148 2.30799957 128.01465546 1.11238098 128.02622986 C-0.50498711 128.01215843 -0.50498711 128.01215843 -2.1550293 127.99780273 C-3.10210251 127.99763657 -4.04917572 127.9974704 -5.02494812 127.99729919 C-8.28728706 127.34894493 -9.4842685 126.04795596 -11.546875 123.49609375 C-12.25569803 120.58824494 -11.88659289 118.55355475 -11.546875 115.49609375 C-9.73524233 112.82177886 -8.66926423 112.53689016 -5.546875 111.49609375 C-3.93196781 111.40080805 -2.31350359 111.36074398 -0.69580078 111.35424805 C0.28887177 111.34721359 1.27354431 111.34017914 2.28805542 111.33293152 C3.35057526 111.32876724 4.41309509 111.32460297 5.5078125 111.3203125 C7.75391565 111.29711746 10.00000944 111.27300025 12.24609375 111.24804688 C15.7902659 111.21290497 19.33409262 111.18357118 22.87841797 111.17016602 C26.29697514 111.15470281 29.71452187 111.11450573 33.1328125 111.0703125 C34.19128387 111.07222092 35.24975525 111.07412933 36.34030151 111.07609558 C42.21170824 110.98297331 42.21170824 110.98297331 47.53564453 108.71020508 C50.55029638 105.22919188 51.48014643 103.3692273 51.33520508 98.68579102 C50.36829418 91.78947604 48.27677407 85.13357651 46.33984375 78.4609375 C45.92445739 77.01334794 45.50949202 75.56563751 45.09492493 74.11781311 C44.22798841 71.09658673 43.35576203 68.07695258 42.47973633 65.05834961 C41.363253 61.20946309 40.26048364 57.35680543 39.16171551 53.50282955 C38.3085781 50.51645366 37.4479587 47.53227305 36.58515358 44.54867744 C36.17580805 43.12972344 35.7687743 41.71010022 35.3642025 40.28977776 C32.68357587 27.858925 32.68357587 27.858925 25.51992798 18.31344604 C22.60848025 17.16206466 20.01847482 17.22063438 16.89453125 17.1875 C15.62158203 17.16236328 14.34863281 17.13722656 13.03710938 17.11132812 C11.02499584 17.08260819 9.0129636 17.05856892 7.00073242 17.03979492 C5.04848864 17.01805288 3.09647639 16.9779804 1.14453125 16.9375 C-0.60041626 16.91731812 -0.60041626 16.91731812 -2.38061523 16.89672852 C-6.14213359 16.42077419 -8.84455733 15.19841142 -11.546875 12.49609375 C-12.13724089 5.29362995 -12.13724089 5.29362995 -9.99194336 2.39550781 C-6.73111227 -0.13761909 -3.96223995 -0.06377339 0 0 Z " fill="#3E0B16" transform="translate(11.546875,106.50390625)"/>
<path d="M0 0 C6.22566722 5.18805601 10.07520012 12.10441267 12.1875 19.875 C13.28587954 32.08489346 12.07621588 41.52849024 4.0625 51.1875 C-1.69153367 57.24638313 -9.01904137 61.56293919 -17.47265625 62.11328125 C-29.7792629 62.42768361 -38.49748875 61.00171278 -47.765625 52.2265625 C-55.13354823 43.76188734 -57.22641425 35.24620359 -57.078125 24.28515625 C-56.26624015 13.86198753 -51.39749047 6.82059458 -43.8125 -0.125 C-30.7999197 -10.5252987 -13.24347493 -9.36787608 0 0 Z M-38.68359375 18.19140625 C-41.4833798 22.36686573 -41.37474816 27.04903666 -40.8125 31.875 C-39.11569083 37.1314197 -36.6104634 40.99622196 -31.8125 43.875 C-26.35590178 46.52352428 -21.85746708 47.4833123 -15.953125 45.80078125 C-11.10169622 43.70262683 -7.92728916 40.42132045 -4.875 36.1875 C-3.03992868 30.46639531 -2.53538504 24.95317453 -4.87890625 19.3046875 C-8.10902839 13.97102532 -11.76710743 10.59736656 -17.8125 8.875 C-26.68816662 7.23455578 -33.23241311 11.52225064 -38.68359375 18.19140625 Z " fill="#3D0B16" transform="translate(187.8125,417.125)"/>
</svg>
