<?xml version="1.0" encoding="UTF-8"?>
<svg version="1.1" xmlns="http://www.w3.org/2000/svg" width="512" height="512">
<path d="M0 0 C0.95708359 0.00222061 1.91416718 0.00444122 2.9002533 0.00672913 C3.98129837 0.00680466 5.06234344 0.00688019 6.17614746 0.00695801 C7.94018166 0.01469994 7.94018166 0.01469994 9.73985291 0.02259827 C10.93702438 0.02401321 12.13419586 0.02542816 13.36764526 0.02688599 C17.20918732 0.03250472 21.05067208 0.04506041 24.89219666 0.05775452 C27.48920102 0.0627671 30.0862063 0.06733043 32.68321228 0.07142639 C39.06539344 0.08248024 45.44754096 0.0992366 51.82969666 0.12025452 C53.56404055 5.17477563 55.19361793 10.19498377 56.43516541 15.39759827 C56.69620056 16.48750061 56.95723572 17.57740295 57.22618103 18.70033264 C57.48721619 19.80828186 57.74825134 20.91623108 58.01719666 22.05775452 C58.42615173 23.76028381 58.42615173 23.76028381 58.84336853 25.49720764 C60.82969666 33.84575969 60.82969666 33.84575969 60.82969666 36.12025452 C61.83129822 36.2272467 62.83289978 36.33423889 63.86485291 36.44447327 C67.89774792 37.02349843 71.52348674 38.36539569 75.26719666 39.93275452 C75.92316833 40.19830139 76.57914001 40.46384827 77.25498962 40.73744202 C80.77455766 42.18262046 84.13435981 43.76719033 87.45469666 45.62025452 C90.61140962 47.45865423 90.61140962 47.45865423 93.17710876 46.43348694 C96.1183325 44.97735786 98.86515368 43.35217001 101.64610291 41.60853577 C102.73987244 40.93371155 103.83364197 40.25888733 104.96055603 39.56361389 C106.68441165 38.49578453 108.40560377 37.42431048 110.1214447 36.34364319 C111.78935974 35.29576209 113.46761423 34.26439518 115.14610291 33.23353577 C116.14069519 32.61261047 117.13528748 31.99168518 118.16001892 31.35194397 C120.82969666 30.12025452 120.82969666 30.12025452 122.76063538 30.33360291 C125.30692988 31.30169732 126.66608948 32.56247802 128.60435486 34.47499084 C129.68986382 35.536632 129.68986382 35.536632 130.79730225 36.61972046 C131.56725021 37.38946701 132.33719818 38.15921356 133.13047791 38.95228577 C133.92624741 39.74044174 134.72201691 40.52859772 135.54190063 41.34063721 C137.22088376 43.00881618 138.89590603 44.68098973 140.56724548 46.35682678 C143.13580773 48.92636317 145.72494748 51.47383874 148.31602478 54.02064514 C149.9429748 55.64238991 151.56866979 57.26539493 153.19297791 58.88978577 C154.36308159 60.03529655 154.36308159 60.03529655 155.55682373 61.20394897 C156.26473557 61.92116623 156.9726474 62.63838348 157.70201111 63.37733459 C158.33170303 64.00497208 158.96139496 64.63260956 159.61016846 65.27926636 C160.82969666 67.12025452 160.82969666 67.12025452 160.62605286 69.17684937 C159.44390303 72.06173436 157.82704618 74.5723248 156.16172791 77.20619202 C155.42578517 78.39572953 154.69078758 79.58585222 153.95664978 80.77650452 C152.80036241 82.64111932 151.63846117 84.5011196 150.45982361 86.35169983 C149.32067192 88.1463224 148.20840703 89.95543647 147.09922791 91.76869202 C146.42480652 92.84296448 145.75038513 93.91723694 145.05552673 95.02406311 C143.51260411 98.07864763 143.51260411 98.07864763 144.52183533 101.27503967 C144.95342957 102.21396057 145.3850238 103.15288147 145.82969666 104.12025452 C146.24445251 105.13732483 146.24445251 105.13732483 146.66758728 106.17494202 C146.93764587 106.77564514 147.20770447 107.37634827 147.48594666 107.99525452 C147.78629822 108.67072327 148.08664978 109.34619202 148.39610291 110.04212952 C148.70418884 110.72791077 149.01227478 111.41369202 149.32969666 112.12025452 C154.82969666 124.36293234 154.82969666 124.36293234 154.82969666 130.12025452 C155.94344666 130.36259827 157.05719666 130.60494202 158.20469666 130.85462952 C166.12113073 132.58833992 174.02429929 134.36430425 181.89219666 136.30775452 C182.57604431 136.47436584 183.25989197 136.64097717 183.96446228 136.81263733 C188.70957746 138.00013532 188.70957746 138.00013532 189.82969666 139.12025452 C189.92322829 140.80827437 189.94714456 142.50020659 189.94322205 144.19081116 C189.94314651 145.27185623 189.94307098 146.35290131 189.94299316 147.46670532 C189.93783188 148.64272812 189.93267059 149.81875092 189.92735291 151.03041077 C189.92523048 152.82616798 189.92523048 152.82616798 189.92306519 154.65820312 C189.91744645 158.49974518 189.90489076 162.34122994 189.89219666 166.18275452 C189.88718407 168.77975889 189.88262075 171.37676416 189.87852478 173.97377014 C189.86747093 180.3559513 189.85071458 186.73809882 189.82969666 193.12025452 C184.84527422 194.82305434 179.88568604 196.45110832 174.77110291 197.72572327 C173.72631775 197.98675842 172.68153259 198.24779358 171.60508728 198.51673889 C170.54483337 198.77777405 169.48457947 199.0388092 168.39219666 199.30775452 C166.76121033 199.71670959 166.76121033 199.71670959 165.09727478 200.13392639 C157.09720135 202.12025452 157.09720135 202.12025452 154.82969666 202.12025452 C154.72270447 203.12185608 154.61571228 204.12345764 154.50547791 205.15541077 C153.92645275 209.18830578 152.58455549 212.8140446 151.01719666 216.55775452 C150.75164978 217.2137262 150.48610291 217.86969788 150.21250916 218.54554749 C148.76733071 222.06511553 147.18276084 225.42491767 145.32969666 228.74525452 C143.49129695 231.90196748 143.49129695 231.90196748 144.51646423 234.46766663 C145.97259331 237.40889036 147.59778117 240.15571154 149.34141541 242.93666077 C150.01623962 244.0304303 150.69106384 245.12419983 151.38633728 246.25111389 C152.45416665 247.97496951 153.5256407 249.69616163 154.60630798 251.41200256 C155.65418908 253.0799176 156.68555599 254.75817209 157.71641541 256.43666077 C158.3373407 257.43125305 158.95826599 258.42584534 159.5980072 259.45057678 C160.82969666 262.12025452 160.82969666 262.12025452 160.61634827 264.05119324 C159.64825385 266.59748774 158.38747315 267.95664734 156.47496033 269.89491272 C155.76719955 270.61858536 155.05943878 271.342258 154.33023071 272.08786011 C153.56048416 272.85780807 152.79073761 273.62775604 151.99766541 274.42103577 C151.20950943 275.21680527 150.42135345 276.01257477 149.60931396 276.8324585 C147.94113499 278.51144162 146.26896144 280.18646389 144.59312439 281.85780334 C142.023588 284.42636559 139.47611243 287.01550534 136.92930603 289.60658264 C135.30756126 291.23353266 133.68455625 292.85922765 132.06016541 294.48353577 C131.29649155 295.26360489 130.53281769 296.04367401 129.7460022 296.84738159 C129.02878494 297.55529343 128.31156769 298.26320526 127.57261658 298.99256897 C126.9449791 299.62226089 126.31734161 300.25195282 125.67068481 300.90072632 C123.82969666 302.12025452 123.82969666 302.12025452 121.77310181 301.91661072 C118.88821681 300.73446089 116.37762637 299.11760404 113.74375916 297.45228577 C112.55422164 296.71634304 111.36409896 295.98134544 110.17344666 295.24720764 C108.30883185 294.09092027 106.44883157 292.92901903 104.59825134 291.75038147 C102.80362878 290.61122978 100.9945147 289.49896489 99.18125916 288.38978577 C98.10698669 287.71536438 97.03271423 287.04094299 95.92588806 286.34608459 C92.87130354 284.80316197 92.87130354 284.80316197 89.6749115 285.81239319 C88.7359906 286.24398743 87.7970697 286.67558167 86.82969666 287.12025452 C86.15164978 287.39675842 85.47360291 287.67326233 84.77500916 287.95814514 C84.17430603 288.22820374 83.57360291 288.49826233 82.95469666 288.77650452 C82.27922791 289.07685608 81.60375916 289.37720764 80.90782166 289.68666077 C80.22204041 289.9947467 79.53625916 290.30283264 78.82969666 290.62025452 C66.58701883 296.12025452 66.58701883 296.12025452 60.82969666 296.12025452 C60.58735291 297.23400452 60.34500916 298.34775452 60.09532166 299.49525452 C58.36161125 307.41168859 56.58564693 315.31485715 54.64219666 323.18275452 C54.47558533 323.86660217 54.308974 324.55044983 54.13731384 325.25502014 C52.94981585 330.00013532 52.94981585 330.00013532 51.82969666 331.12025452 C50.1416768 331.21378615 48.44974458 331.23770242 46.75914001 331.23377991 C45.67809494 331.23370438 44.59704987 331.23362885 43.48324585 331.23355103 C41.71921165 331.2258091 41.71921165 331.2258091 39.91954041 331.21791077 C38.72236893 331.21649582 37.52519745 331.21508087 36.29174805 331.21362305 C32.450206 331.20800431 28.60872123 331.19544862 24.76719666 331.18275452 C22.17019229 331.17774193 19.57318701 331.17317861 16.97618103 331.16908264 C10.59399987 331.15802879 4.21185235 331.14127244 -2.17030334 331.12025452 C-3.87310317 326.13583208 -5.50115714 321.17624391 -6.77577209 316.06166077 C-7.03680725 315.01687561 -7.29784241 313.97209045 -7.56678772 312.89564514 C-7.82782288 311.83539124 -8.08885803 310.77513733 -8.35780334 309.68275452 C-8.76675842 308.05176819 -8.76675842 308.05176819 -9.18397522 306.38783264 C-11.17030334 298.38775922 -11.17030334 298.38775922 -11.17030334 296.12025452 C-12.17190491 296.01326233 -13.17350647 295.90627014 -14.20545959 295.79603577 C-18.23835461 295.21701061 -21.86409343 293.87511335 -25.60780334 292.30775452 C-26.26377502 292.04220764 -26.9197467 291.77666077 -27.59559631 291.50306702 C-31.11516435 290.05788857 -34.47496649 288.4733187 -37.79530334 286.62025452 C-40.95201631 284.78185481 -40.95201631 284.78185481 -43.51771545 285.80702209 C-46.45893919 287.26315117 -49.20576037 288.88833903 -51.98670959 290.63197327 C-53.08047913 291.30679749 -54.17424866 291.9816217 -55.30116272 292.67689514 C-57.02501834 293.74472451 -58.74621046 294.81619856 -60.46205139 295.89686584 C-62.12996642 296.94474695 -63.80822092 297.97611385 -65.48670959 299.00697327 C-66.48130188 299.62789856 -67.47589417 300.24882385 -68.50062561 300.88856506 C-71.17030334 302.12025452 -71.17030334 302.12025452 -73.10124207 301.90690613 C-75.64753657 300.93881171 -77.00669617 299.67803101 -78.94496155 297.76551819 C-79.66863419 297.05775742 -80.39230682 296.34999664 -81.13790894 295.62078857 C-81.9078569 294.85104202 -82.67780487 294.08129547 -83.47108459 293.28822327 C-84.2668541 292.50006729 -85.0626236 291.71191132 -85.88250732 290.89987183 C-87.56149045 289.23169285 -89.23651272 287.55951931 -90.90785217 285.88368225 C-93.47641442 283.31414586 -96.06555417 280.76667029 -98.65663147 278.21986389 C-100.28358149 276.59811912 -101.90927648 274.97511411 -103.53358459 273.35072327 C-104.31365372 272.58704941 -105.09372284 271.82337555 -105.89743042 271.03656006 C-106.95929817 269.96073418 -106.95929817 269.96073418 -108.0426178 268.86317444 C-108.67230972 268.23553696 -109.30200165 267.60789948 -109.95077515 266.96124268 C-111.17030334 265.12025452 -111.17030334 265.12025452 -110.96665955 263.06365967 C-109.78450972 260.17877467 -108.16765287 257.66818424 -106.50233459 255.03431702 C-105.76639186 253.8447795 -105.03139427 252.65465682 -104.29725647 251.46400452 C-103.1409691 249.59938971 -101.97906786 247.73938943 -100.8004303 245.8888092 C-99.66127861 244.09418664 -98.54901372 242.28507257 -97.43983459 240.47181702 C-96.42820251 238.86040833 -96.42820251 238.86040833 -95.39613342 237.21644592 C-93.8532108 234.16186141 -93.8532108 234.16186141 -94.86244202 230.96546936 C-95.29403625 230.02654846 -95.72563049 229.08762756 -96.17030334 228.12025452 C-96.5850592 227.1031842 -96.5850592 227.1031842 -97.00819397 226.06556702 C-97.27825256 225.46486389 -97.54831116 224.86416077 -97.82655334 224.24525452 C-98.27708069 223.23205139 -98.27708069 223.23205139 -98.73670959 222.19837952 C-99.04479553 221.51259827 -99.35288147 220.82681702 -99.67030334 220.12025452 C-105.17030334 207.87757669 -105.17030334 207.87757669 -105.17030334 202.12025452 C-106.94920959 201.75673889 -106.94920959 201.75673889 -108.76405334 201.38587952 C-116.97206794 199.69298716 -125.16000628 197.94967719 -133.29530334 195.93275452 C-133.97528381 195.76614319 -134.65526428 195.59953186 -135.35585022 195.4278717 C-140.04621291 194.24434495 -140.04621291 194.24434495 -141.17030334 193.12025452 C-141.26383498 191.43223467 -141.28775125 189.74030244 -141.28382874 188.04969788 C-141.2837532 186.9686528 -141.28367767 185.88760773 -141.28359985 184.77380371 C-141.27843857 183.59778091 -141.27327728 182.42175812 -141.26795959 181.21009827 C-141.26654465 180.01292679 -141.2651297 178.81575531 -141.26367188 177.58230591 C-141.25805314 173.74076386 -141.24549745 169.89927909 -141.23280334 166.05775452 C-141.22779076 163.46075015 -141.22322744 160.86374487 -141.21913147 158.26673889 C-141.20807762 151.88455773 -141.19132126 145.50241021 -141.17030334 139.12025452 C-136.11578223 137.38591063 -131.09557409 135.75633324 -125.89295959 134.51478577 C-124.80305725 134.25375061 -123.71315491 133.99271545 -122.59022522 133.72377014 C-121.482276 133.46273499 -120.37432678 133.20169983 -119.23280334 132.93275452 C-117.53027405 132.52379944 -117.53027405 132.52379944 -115.79335022 132.10658264 C-107.44479818 130.12025452 -107.44479818 130.12025452 -105.17030334 130.12025452 C-105.06331116 129.11865295 -104.95631897 128.11705139 -104.84608459 127.08509827 C-104.26705944 123.05220325 -102.92516218 119.42646443 -101.35780334 115.68275452 C-101.09225647 115.02678284 -100.82670959 114.37081116 -100.55311584 113.69496155 C-99.1079374 110.17539351 -97.52336753 106.81559137 -95.67030334 103.49525452 C-93.83190363 100.33854155 -93.83190363 100.33854155 -94.85707092 97.77284241 C-96.3132 94.83161868 -97.93838786 92.08479749 -99.68202209 89.30384827 C-100.35684631 88.21007874 -101.03167053 87.1163092 -101.72694397 85.98939514 C-102.79477333 84.26553952 -103.86624739 82.5443474 -104.94691467 80.82850647 C-105.99479577 79.16059144 -107.02616268 77.48233694 -108.05702209 75.80384827 C-108.67794739 74.80925598 -109.29887268 73.8146637 -109.93861389 72.78993225 C-111.17030334 70.12025452 -111.17030334 70.12025452 -110.95695496 68.1893158 C-109.98886054 65.6430213 -108.72807984 64.2838617 -106.81556702 62.34559631 C-106.10780624 61.62192368 -105.40004547 60.89825104 -104.6708374 60.15264893 C-103.90109085 59.38270096 -103.1313443 58.61275299 -102.33827209 57.81947327 C-101.15603813 56.62581902 -101.15603813 56.62581902 -99.94992065 55.40805054 C-98.28174168 53.72906742 -96.60956813 52.05404514 -94.93373108 50.38270569 C-92.36419469 47.81414344 -89.81671912 45.22500369 -87.26991272 42.63392639 C-85.64816795 41.00697637 -84.02516294 39.38128139 -82.40077209 37.75697327 C-81.25526131 36.58686958 -81.25526131 36.58686958 -80.08660889 35.39312744 C-79.36939163 34.68521561 -78.65217438 33.97730377 -77.91322327 33.24794006 C-77.28558578 32.61824814 -76.6579483 31.98855621 -76.0112915 31.33978271 C-74.17030334 30.12025452 -74.17030334 30.12025452 -72.1137085 30.32389832 C-69.2288235 31.50604814 -66.71823306 33.122905 -64.08436584 34.78822327 C-62.89482833 35.524166 -61.70470565 36.25916359 -60.51405334 36.99330139 C-58.64943854 38.14958876 -56.78943826 39.31149 -54.93885803 40.49012756 C-53.14423547 41.62927925 -51.33512139 42.74154414 -49.52186584 43.85072327 C-48.44759338 44.52514465 -47.37332092 45.19956604 -46.26649475 45.89442444 C-43.19833448 47.44480968 -43.19833448 47.44480968 -39.93617249 46.39637756 C-39.02343567 45.97525696 -38.11069885 45.55413635 -37.17030334 45.12025452 C-36.31049866 44.74127014 -35.45069397 44.36228577 -34.56483459 43.97181702 C-33.71276428 43.56705139 -32.86069397 43.16228577 -31.98280334 42.74525452 C-17.59259563 36.12025452 -17.59259563 36.12025452 -11.17030334 36.12025452 C-10.80678772 34.34134827 -10.80678772 34.34134827 -10.43592834 32.52650452 C-8.74303598 24.31848992 -6.99972602 16.13055158 -4.98280334 7.99525452 C-4.81619202 7.31527405 -4.64958069 6.63529358 -4.47792053 5.93470764 C-3.02266753 0.16748323 -3.02266753 0.16748323 0 0 Z M-29.17030334 114.12025452 C-43.98458514 129.52710758 -49.82685469 148.4783437 -49.56874084 169.48719788 C-49.08293667 186.15371345 -43.0186097 201.35384182 -32.17030334 214.12025452 C-31.42780334 215.11025452 -30.68530334 216.10025452 -29.92030334 217.12025452 C-22.11168676 226.17727062 -11.87674955 231.30726494 -1.17030334 236.12025452 C-0.38010803 236.48248108 0.41008728 236.84470764 1.22422791 237.21791077 C18.71628236 244.08362839 39.08028817 241.37361718 55.82969666 234.12025452 C75.43486448 225.25691954 88.12964888 209.75537634 95.82969666 190.12025452 C96.37110291 188.74740295 96.37110291 188.74740295 96.92344666 187.34681702 C102.71205299 169.06982851 99.45368795 148.45020698 90.95152283 131.78089905 C88.33583698 126.84873644 85.45054134 122.38130652 81.82969666 118.12025452 C81.08719666 117.13025452 80.34469666 116.14025452 79.57969666 115.12025452 C67.31507839 100.85010119 48.71183119 93.25567064 30.39219666 91.24525452 C7.6745992 90.10100206 -12.77282191 98.50135853 -29.17030334 114.12025452 Z " fill="#000000" transform="translate(141.17030334472656,-0.1202545166015625)"/>
<path d="M0 0 C1.70751953 2.53442383 1.70751953 2.53442383 3.3828125 5.70703125 C3.99253906 6.85107422 4.60226562 7.99511719 5.23046875 9.17382812 C5.86200789 10.38670379 6.49351804 11.59959456 7.125 12.8125 C7.76333565 14.01419682 8.40264885 15.21537492 9.04296875 16.41601562 C11.57984572 21.21238281 14.07010213 25.92246094 16 31 C16.93005859 31.03867187 16.93005859 31.03867187 17.87890625 31.078125 C27.33701424 31.68388446 37.03810012 33.60795068 45.640625 37.6953125 C49.38800744 39.15069126 50.26085199 39.12856485 54 38 C56.34251811 36.78580039 58.57753649 35.54211848 60.83203125 34.18359375 C61.7869471 33.61971703 61.7869471 33.61971703 62.76115417 33.04444885 C64.78234433 31.84885262 66.79742562 30.64336939 68.8125 29.4375 C70.18645703 28.62238587 71.56080207 27.8079254 72.93554688 26.99414062 C76.29490493 25.00363504 79.64882217 23.00424446 83 21 C88.14829744 25.30627256 92.95752072 29.82311931 97.68359375 34.5859375 C98.38396255 35.28772125 99.08433136 35.989505 99.80592346 36.71255493 C102.01883027 38.93101136 104.22821416 41.15293815 106.4375 43.375 C107.94703314 44.88955466 109.45679657 46.40387985 110.96679688 47.91796875 C114.64719702 51.60933099 118.32471957 55.30354069 122 59 C118.0923027 67.29909811 113.38174167 74.87874597 108.2890625 82.49609375 C104.96559426 87.46389199 104.96559426 87.46389199 103.96484375 93.19140625 C104.30644531 94.11824219 104.64804687 95.04507813 105 96 C105.55494141 97.72283203 105.55494141 97.72283203 106.12109375 99.48046875 C106.77271484 101.31544922 106.77271484 101.31544922 107.4375 103.1875 C110.13398994 111.00394417 112.16308041 118.66807363 112 127 C112.71333496 127.26876953 113.42666992 127.53753906 114.16162109 127.81445312 C117.05203236 129.02173311 119.69091683 130.42249638 122.4140625 131.96875 C123.42210937 132.53980469 124.43015625 133.11085938 125.46875 133.69921875 C126.5103125 134.29347656 127.551875 134.88773438 128.625 135.5 C130.19894531 136.39138672 130.19894531 136.39138672 131.8046875 137.30078125 C139.54717938 141.69811959 139.54717938 141.69811959 143 144 C142.4194834 150.76467269 141.11125485 156.97574544 139.27734375 163.50390625 C139.01240616 164.4677977 138.74746857 165.43168915 138.47450256 166.42478943 C137.63523198 169.47250238 136.78653479 172.51749445 135.9375 175.5625 C135.3633048 177.64110281 134.78973091 179.71987735 134.21679688 181.79882812 C132.81951893 186.86825765 131.40949649 191.9338912 130 197 C117.46 197 104.92 197 92 197 C91.34 198.32 90.68 199.64 90 201 C84.42599693 208.21069095 77.60576194 215.92415466 70 221 C69.34 221 68.68 221 68 221 C68 233.54 68 246.08 68 259 C61.25713649 260.85728515 54.51344705 262.7106652 47.7668457 264.55419922 C45.47227497 265.1824533 43.17832281 265.81297118 40.88500977 266.44580078 C37.58770366 267.35525477 34.28825549 268.2565325 30.98828125 269.15625 C29.96414627 269.44060913 28.94001129 269.72496826 27.88484192 270.01794434 C26.44391426 270.408349 26.44391426 270.408349 24.97387695 270.80664062 C24.13226517 271.03758423 23.29065338 271.26852783 22.42353821 271.50646973 C19.88639697 272.02313417 17.58207825 272.08797283 15 272 C12.89607179 268.39124764 10.79661699 264.77994138 8.70117188 261.16625977 C7.98851309 259.93866943 7.27466154 258.7117707 6.55957031 257.4855957 C5.52871269 255.71748824 4.50224708 253.94689342 3.4765625 252.17578125 C2.549646 250.58117065 2.549646 250.58117065 1.60400391 248.9543457 C0.18599698 246.34257982 -0.96950379 243.78323976 -2 241 C-2.62003906 240.97421875 -3.24007812 240.9484375 -3.87890625 240.921875 C-13.33701424 240.31611554 -23.03810012 238.39204932 -31.640625 234.3046875 C-35.38800744 232.84930874 -36.26085199 232.87143515 -40 234 C-42.34251811 235.21419961 -44.57753649 236.45788152 -46.83203125 237.81640625 C-47.46864182 238.19232407 -48.10525238 238.56824188 -48.76115417 238.95555115 C-50.78234433 240.15114738 -52.79742562 241.35663061 -54.8125 242.5625 C-56.18645703 243.37761413 -57.56080207 244.1920746 -58.93554688 245.00585938 C-62.29490493 246.99636496 -65.64882217 248.99575554 -69 251 C-74.14829744 246.69372744 -78.95752072 242.17688069 -83.68359375 237.4140625 C-84.38396255 236.71227875 -85.08433136 236.010495 -85.80592346 235.28744507 C-88.01883027 233.06898864 -90.22821416 230.84706185 -92.4375 228.625 C-93.94703314 227.11044534 -95.45679657 225.59612015 -96.96679688 224.08203125 C-100.64719702 220.39066901 -104.32471957 216.69645931 -108 213 C-104.0923027 204.70090189 -99.38174167 197.12125403 -94.2890625 189.50390625 C-90.96559426 184.53610801 -90.96559426 184.53610801 -89.96484375 178.80859375 C-90.30644531 177.88175781 -90.64804687 176.95492187 -91 176 C-91.36996094 174.85144531 -91.73992187 173.70289063 -92.12109375 172.51953125 C-92.77271484 170.68455078 -92.77271484 170.68455078 -93.4375 168.8125 C-96.13398994 160.99605583 -98.16308041 153.33192637 -98 145 C-98.69907471 144.73429199 -99.39814941 144.46858398 -100.1184082 144.19482422 C-105.03595733 142.15580995 -109.68171187 139.59079469 -114.37573242 137.08740234 C-115.58629347 136.44435806 -116.79954225 135.80634891 -118.01538086 135.17333984 C-119.78041654 134.25429335 -121.53683534 133.31875741 -123.29296875 132.3828125 C-124.3399292 131.82996582 -125.38688965 131.27711914 -126.46557617 130.70751953 C-129.1979222 128.8666537 -129.91599915 128.04201995 -131 125 C-130.75370789 122.71017456 -130.75370789 122.71017456 -130.04956055 120.17138672 C-129.7923674 119.21714813 -129.53517426 118.26290955 -129.27018738 117.27975464 C-128.97864273 116.25673248 -128.68709808 115.23371033 -128.38671875 114.1796875 C-128.09771194 113.12468048 -127.80870514 112.06967346 -127.51094055 110.98269653 C-126.58316463 107.60960412 -125.63534486 104.24250149 -124.6875 100.875 C-124.05927988 98.59800543 -123.43231123 96.32066519 -122.80664062 94.04296875 C-121.65797253 89.88318351 -120.50719283 85.72406718 -119.33862305 81.56982422 C-119.10386765 80.73361542 -118.86911224 79.89740662 -118.62724304 79.03585815 C-118 77 -118 77 -117 75 C-104.13 75 -91.26 75 -78 75 C-77.34 73.68 -76.68 72.36 -76 71 C-70.42599693 63.78930905 -63.60576194 56.07584534 -56 51 C-55.34 51 -54.68 51 -54 51 C-54 38.13 -54 25.26 -54 12 C-46.00676442 9.64055094 -38.00883269 7.30514145 -30 5 C-28.80407227 4.65324219 -27.60814453 4.30648437 -26.37597656 3.94921875 C-22.83826763 2.92944192 -19.29522467 1.93079357 -15.75 0.9375 C-14.63834473 0.61450928 -13.52668945 0.29151855 -12.38134766 -0.04125977 C-10.82359619 -0.47136353 -10.82359619 -0.47136353 -9.234375 -0.91015625 C-8.31881836 -1.16933838 -7.40326172 -1.42852051 -6.45996094 -1.69555664 C-3.44653571 -2.06849642 -2.41836573 -1.82865799 0 0 Z M-28.984375 109.26953125 C-37.00737441 120.13789673 -38.0733929 131.92040045 -37 145 C-34.49780411 157.12492636 -26.80768742 166.7599904 -17 174 C-5.69386684 180.28950454 6.60611251 181.93859707 19.3125 179.31640625 C30.80553435 175.38200102 40.6924065 167.74341212 46.640625 157.05078125 C51.77606293 145.99778409 53.39791401 132.68908284 49.375 120.9375 C43.85336225 108.37960858 35.17489937 99.21919973 22.4453125 93.875 C3.1158043 86.95837087 -16.03933968 94.31032086 -28.984375 109.26953125 Z " fill="#000000" transform="translate(369,240)"/>
<path d="M0 0 C9.47463573 6.94911196 16.95161439 16.64389635 19.421875 28.35546875 C20.71840454 42.36291128 19.58515159 54.65161646 11.046875 66.29296875 C3.79710687 74.80019131 -6.14121373 82.4819878 -17.66186523 83.54833984 C-32.20672027 84.0750382 -44.10662342 82.99872375 -55.65625 73.15625 C-63.78698313 65.53781916 -70.43729869 55.48683287 -70.8515625 44.046875 C-71.2686331 29.19654597 -69.07220246 17.55522171 -58.578125 6.35546875 C-43.56002846 -9.51550735 -18.09084176 -11.53976422 0 0 Z " fill="#000000" transform="translate(191.578125,127.64453125)"/>
<path d="M0 0 C4.61581142 2.18643699 6.72864085 4.49599804 9 9 C9.82885269 14.54808604 9.7240695 19.47140883 7.3125 24.5625 C4.21064779 27.8320199 1.61649202 29.75850523 -2.90234375 30.43359375 C-9.05071801 30.44150672 -13.31314296 30.4465054 -18 26 C-21.88937897 20.55860924 -21.79042609 15.48149391 -21 9 C-16.63929544 -0.20593186 -9.3488659 -1.1401056 0 0 Z " fill="#000000" transform="translate(382,361)"/>
</svg>
